# xmcd CD database file
#
# Track frame offsets:
#	150
#	33144
#	68441
#	107383
#	132748
#	171043
#	201111
#	238605
#	265300
#
# Disc length: 4068 seconds
#
# Revision: 0
# Processed by: cddbd v1.5.2PL0 Copyright (c) Steve Scherf et al.
# Submitted via: CDex 1.70beta2
#
DISCID=730fe209
DTITLE=Frode Kjekstad - A Piece of the Apple
DYEAR=2017
DGENRE=Jazz
TTITLE0=A Piece of the Apple
TTITLE1=Malala
TTITLE2=The Three Musketeers
TTITLE3=Not While I´m Around
TTITLE4=That´s All
TTITLE5=Cold Duck Time
TTITLE6=My Shining Hour
TTITLE7=Invitation
TTITLE8=Lone Ranger
EXTD=YEAR: 2017
EXTT0=
EXTT1=
EXTT2=
EXTT3=
EXTT4=
EXTT5=
EXTT6=
EXTT7=
EXTT8=
PLAYORDER=
